<?xml version="1.0" encoding="UTF-8"?>
<svg version="1.1" xmlns="http://www.w3.org/2000/svg" width="1000" height="1000">
<path d="M0 0 C0.96163948 -0.00145344 1.92327897 -0.00290688 2.91405904 -0.00440437 C6.11919017 -0.00803825 9.32427295 -0.00459013 12.52940369 -0.0011425 C14.85744533 -0.00229535 17.18548679 -0.00388398 19.51352787 -0.00586975 C25.89793083 -0.01004055 32.28231881 -0.00798251 38.66672182 -0.00488353 C44.8489855 -0.00236341 51.0312477 -0.00551903 57.21351096 -0.00803089 C70.63510404 -0.0132913 84.05669235 -0.01284236 97.47828588 -0.00995198 C109.22385146 -0.007435 120.96941529 -0.00678039 132.71498108 -0.00797462 C133.49452815 -0.00805101 134.27407523 -0.00812739 135.07724494 -0.00820609 C138.24179512 -0.00851744 141.40634529 -0.00883584 144.57089547 -0.00916586 C174.24807147 -0.01222387 203.92524445 -0.00945296 233.60241999 -0.00406896 C259.96048844 0.00067653 286.31855207 0.0002519 312.67662048 -0.00452995 C342.30002002 -0.00988625 371.92341687 -0.01200698 401.54681683 -0.00891769 C404.70555305 -0.00859698 407.86428928 -0.00828414 411.02302551 -0.00797462 C412.18964108 -0.00785601 412.18964108 -0.00785601 413.37982465 -0.007735 C425.11711385 -0.00659821 436.85440112 -0.00792652 448.59169006 -0.01045418 C461.93942729 -0.01331435 475.28715902 -0.01259664 488.63489556 -0.00717343 C495.44528432 -0.00449753 502.25566268 -0.00351683 509.06605148 -0.00682259 C515.30088663 -0.00980321 521.53570287 -0.00816322 527.7705363 -0.00284503 C530.02543522 -0.00172841 532.28033573 -0.00229532 534.53523362 -0.00472082 C537.60284722 -0.00776729 540.67039633 -0.00463645 543.73800659 0 C544.61081595 -0.00234117 545.4836253 -0.00468233 546.38288343 -0.00709444 C593.40829621 0.13468809 639.55606195 25.31221643 672.8690033 57.12584114 C673.67208923 57.88767708 674.47517517 58.64951302 675.30259705 59.43443489 C712.38346936 95.48706811 733.23895778 147.86400692 734.09878491 199.19718637 C734.14247587 204.10091378 734.13925713 209.00401654 734.12969971 213.9078846 C734.13272746 216.13955937 734.13662004 218.3712331 734.14129227 220.60290504 C734.15150061 226.6796529 734.14940889 232.7563413 734.14511168 238.83309388 C734.14288677 244.73144788 734.15007397 250.62978608 734.15687193 256.52813549 C734.17204766 270.06583672 734.17382367 283.60351913 734.17134891 297.1412271 C734.16951061 307.60059608 734.17128708 318.05995895 734.17557335 328.51932716 C734.17617577 330.02622745 734.17677697 331.53312773 734.17737695 333.04002802 C734.17828428 335.31125282 734.17919296 337.58247762 734.1801093 339.85370241 C734.1885291 360.94843502 734.19288125 382.04316534 734.18870258 403.1378994 C734.18854621 403.93180124 734.18838983 404.72570308 734.18822872 405.54366255 C734.18742303 409.56674808 734.18657726 413.5898336 734.18571541 417.61291912 C734.18554433 418.41180395 734.18537324 419.21068877 734.18519697 420.03378223 C734.18485031 421.6493179 734.18450178 423.26485356 734.18415138 424.88038922 C734.17879561 450.01153682 734.18672451 475.14264931 734.20518494 500.27379036 C734.22593948 528.56062988 734.23662112 556.84744767 734.23260945 585.13429523 C734.23221415 588.1552275 734.2318526 591.17615978 734.23151207 594.19709206 C734.23142134 594.94082831 734.23133061 595.68456456 734.23123713 596.45083827 C734.23007528 607.6367783 734.23668779 618.82269624 734.24732399 630.00863075 C734.25942021 642.74241273 734.26088427 655.47614633 734.24853382 668.20992908 C734.24252128 674.69797154 734.24148503 681.1859389 734.25353622 687.6739769 C734.2644685 693.62915577 734.26120528 699.58416237 734.24727454 705.53933343 C734.24464769 707.67777559 734.24692971 709.81623158 734.2550104 711.95466009 C734.32174297 730.95403093 732.91264511 750.06878186 728.3065033 768.56334114 C728.05674744 769.57863899 727.80699158 770.59393684 727.54966736 771.6400013 C714.24252397 822.87644037 680.11141361 866.6652186 635.33384705 894.35240364 C631.89198496 896.37323963 628.4127672 898.29182767 624.8690033 900.12584114 C624.17113708 900.48774544 623.47327087 900.84964973 622.7542572 901.22252083 C606.72818257 909.41541059 590.28530235 915.18715108 572.6815033 918.93834114 C571.76924988 919.13331184 570.85699646 919.32828255 569.917099 919.52916145 C553.41122918 922.81844295 537.06419073 923.41907215 520.289505 923.38653755 C518.05543154 923.38956413 515.82135912 923.39345613 513.5872885 923.39813012 C507.49462044 923.40835376 501.4020116 923.40624274 495.30933881 923.40194952 C489.39842806 923.39972701 483.48753032 923.40690832 477.5766247 923.41370978 C464.00679054 923.42889661 450.43697514 923.4306603 436.86713426 923.42818675 C426.38245047 923.42634923 415.89777278 923.4281233 405.41308975 923.43241119 C403.90311235 923.43301361 402.39313496 923.43361481 400.88315756 923.4342148 C398.60734107 923.43512212 396.33152459 923.43603079 394.0557081 923.43694715 C372.91382391 923.44536883 351.77194201 923.44971785 330.63005638 923.44554043 C329.83413965 923.44538405 329.03822292 923.44522768 328.2181875 923.44506656 C324.18480377 923.44426086 320.15142004 923.44341509 316.11803631 923.44255326 C315.31709387 923.44238217 314.51615142 923.44221108 313.69093799 923.44203481 C312.07123991 923.44168815 310.45154182 923.44133962 308.83184374 923.44098923 C283.64060312 923.43563443 258.44939753 923.44355879 233.25816345 923.46202278 C204.90907869 923.48277735 176.56001562 923.49345885 148.21092284 923.4894473 C145.18321904 923.48905199 142.15551524 923.48869044 139.12781143 923.48834991 C138.38239903 923.48825918 137.63698663 923.48816845 136.86898597 923.48807497 C125.65682818 923.48691303 114.44469242 923.49352647 103.23254013 923.50416183 C90.46760158 923.51625829 77.70271129 923.51772197 64.93777196 923.50537167 C58.43354134 923.49935893 51.92938562 923.49832333 45.42515945 923.51037407 C39.45509754 923.52130594 33.48520748 923.51804357 27.51515336 923.50411239 C25.37126788 923.5014854 23.2273686 923.503768 21.08349673 923.51184825 C1.96224592 923.57883479 -17.22387217 922.14834257 -35.8184967 917.43834114 C-37.35799988 917.05597298 -37.35799988 917.05597298 -38.92860413 916.6658802 C-74.67032016 907.43046573 -104.67921142 888.39801978 -131.1309967 863.12584114 C-131.85802795 862.45166145 -132.5850592 861.77748177 -133.3341217 861.08287239 C-139.66247845 855.05035346 -144.88385475 848.09237385 -150.1309967 841.12584114 C-150.7600592 840.2918177 -151.3891217 839.45779427 -152.0372467 838.59849739 C-173.63438607 808.80055746 -189.32800584 770.69645603 -189.26521778 733.53896618 C-189.26757001 732.5875252 -189.26992224 731.63608422 -189.27234575 730.6558117 C-189.27901346 727.4611634 -189.2785782 724.26655598 -189.27816772 721.07190132 C-189.28146776 718.76070133 -189.28519363 716.44950191 -189.2893092 714.13830322 C-189.29932188 707.78136649 -189.30304484 701.4244392 -189.30569851 695.0674957 C-189.30872242 688.91683405 -189.31735055 682.76617884 -189.32524245 676.61552192 C-189.34607274 660.13504237 -189.3565558 643.65456105 -189.36537206 627.17407141 C-189.369582 619.37118344 -189.37480364 611.56829624 -189.38005659 603.76540892 C-189.39794869 577.03566088 -189.41294155 550.30591261 -189.42037678 523.57615948 C-189.42085153 521.89840009 -189.42132742 520.2206407 -189.42180444 518.54288131 C-189.42204082 517.71088959 -189.42227719 516.87889787 -189.42252073 516.02169428 C-189.42372189 511.80665404 -189.42493735 507.5916138 -189.42616272 503.37657356 C-189.42640287 502.54009555 -189.42664302 501.70361753 -189.42689045 500.8417917 C-189.43477512 473.74978803 -189.45818878 446.65782826 -189.49071866 419.56584375 C-189.52507658 390.8988364 -189.54473359 362.2318547 -189.54802102 333.56482643 C-189.54843853 330.412816 -189.54891808 327.26080558 -189.5494442 324.10879517 C-189.54956739 323.3327251 -189.54969058 322.55665503 -189.54981751 321.75706769 C-189.5521425 309.30705432 -189.56776357 296.85709218 -189.58828605 284.40709702 C-189.60862067 271.8712786 -189.61398551 259.33552122 -189.60451541 246.79968936 C-189.59978285 240.01803484 -189.60178341 233.23655514 -189.62127686 226.45492172 C-189.63901193 220.2308792 -189.63782739 214.00712107 -189.62237956 207.78307509 C-189.62001908 205.54666405 -189.62424465 203.31023277 -189.63620821 201.07385249 C-189.91312353 145.83004602 -167.57130337 97.86175786 -130.1309967 58.12584114 C-129.40267639 57.3433802 -128.67435608 56.56091927 -127.92396545 55.75474739 C-100.75518017 27.47703209 -62.76699763 10.39323373 -24.88905334 2.55552864 C-23.03876465 2.1722541 -23.03876465 2.1722541 -21.1309967 1.12584114 C-14.11648668 0.1512232 -7.07062749 -0.01896578 0 0 Z " fill="#1453DB" transform="translate(228.13099670410156,38.87415885925293)"/>
<path d="M0 0 C38.35279047 -0.06638906 76.70552585 -0.12168325 115.05835752 -0.15319599 C119.60718311 -0.1569472 124.15600858 -0.16083025 128.70483398 -0.16479492 C129.61025662 -0.16558185 130.51567925 -0.16636878 131.44853894 -0.16717956 C146.02497895 -0.18016133 160.60138273 -0.20377432 175.17780139 -0.23145839 C190.18341247 -0.25971557 205.18900483 -0.27621867 220.19464141 -0.28226548 C228.60247369 -0.28597871 237.01023036 -0.29483584 245.41803551 -0.31719017 C313.01378674 -0.49165956 313.01378674 -0.49165956 343 3 C345.06729049 3.22536353 347.13460533 3.4505039 349.20195007 3.67536926 C374.90220803 6.5058152 400.58797137 12.60954571 425 21 C426.07733398 21.36432129 427.15466797 21.72864258 428.26464844 22.10400391 C452.61019511 30.41842686 476.26921995 41.16223891 498 55 C499.03125 55.6496875 500.0625 56.299375 501.125 56.96875 C516.54244339 66.97368667 531.08836405 78.50777813 544.66015625 90.87890625 C546.78804815 92.80786335 548.94720859 94.69036353 551.125 96.5625 C557.17553546 101.84606618 562.75222763 107.54162773 567.9765625 113.640625 C569.51683186 115.43661475 571.07798346 117.21471882 572.6484375 118.984375 C584.12723299 131.99790235 594.27959778 145.99364118 603 161 C603.33386719 161.56235352 603.66773438 162.12470703 604.01171875 162.70410156 C619.5434435 188.90306106 631.5810877 217.17251485 638.49853516 246.87451172 C638.98498991 248.93637884 639.50984064 250.98493204 640.04296875 253.03515625 C643.8127356 268.07489938 645.30483652 283.61358926 647 299 C647.08849716 299.74741455 647.17699432 300.4948291 647.26817322 301.26489258 C647.99813453 307.81298748 648.16097624 314.28976427 648.16796875 320.875 C648.17129715 321.99777344 648.17462555 323.12054688 648.17805481 324.27734375 C648.18309584 326.65071202 648.18546401 329.02408732 648.18530273 331.39746094 C648.18745997 334.93437278 648.20556477 338.47095691 648.22460938 342.0078125 C648.27751004 363.3531381 647.25108459 384.60307424 643.4296875 405.63427734 C642.96975242 408.16653355 642.53229615 410.70223946 642.09375 413.23828125 C640.11240152 424.42964541 637.53261112 435.2026301 634 446 C633.50137451 447.55436768 633.50137451 447.55436768 632.99267578 449.14013672 C624.94869879 474.05495366 614.92181785 497.75535626 601 520 C600.59072266 520.65468262 600.18144531 521.30936523 599.75976562 521.98388672 C591.36320666 535.26491739 581.92538957 548.13860105 571.1953125 559.62890625 C569.34610117 561.6261861 567.56536061 563.65733875 565.7890625 565.71875 C555.85118961 577.10793935 544.948729 587.74660211 533 597 C531.94491582 597.87530161 530.89302399 598.75446049 529.84375 599.63671875 C512.13133662 614.40627014 492.51605545 626.54528443 472 637 C471.154375 637.43505859 470.30875 637.87011719 469.4375 638.31835938 C399.64508013 673.9146476 324.95550255 677.51001088 248.32078946 677.31019331 C239.67564196 677.28816769 231.03055736 677.28616567 222.38537598 677.28381348 C199.65273336 677.26817863 176.92011489 677.22629501 154.1875 677.1875 C77.8646875 677.0946875 77.8646875 677.0946875 0 677 C0 565.46 0 453.92 0 339 C30.36 339 60.72 339 92 339 C92 424.14 92 509.28 92 597 C142.428125 596.8453125 142.428125 596.8453125 193.875 596.6875 C204.42452637 596.66260498 214.97405273 596.63770996 225.84326172 596.61206055 C235.4387438 596.57542479 235.4387438 596.57542479 245.03421021 596.5349884 C249.25272708 596.51731143 253.4711768 596.50750321 257.68972778 596.50288391 C330.40340857 596.41074092 405.94800278 587.49230578 464 539 C465.07408196 538.12873759 466.14830551 537.2576497 467.22265625 536.38671875 C483.37627304 523.09793278 498.05182812 508.19015928 510 491 C510.4734082 490.32291992 510.94681641 489.64583984 511.43457031 488.94824219 C542.68394776 443.74325028 554.51978488 391.03340349 554.3125 336.6875 C554.31100952 335.71031006 554.30951904 334.73312012 554.3079834 333.72631836 C554.26668043 318.60696471 553.57930871 303.92552559 551 289 C550.86078125 288.11666992 550.7215625 287.23333984 550.578125 286.32324219 C548.34212353 272.14637174 544.51950253 258.60760453 540 245 C539.76587402 244.28038086 539.53174805 243.56076172 539.29052734 242.81933594 C530.12299977 215.00865855 514.1385571 188.96733263 494.30078125 167.51171875 C492.3892039 165.42488643 490.53999341 163.30542306 488.6953125 161.16015625 C463.94801452 132.82983824 429.90143301 113.02881549 395 100 C394.27071289 99.72172363 393.54142578 99.44344727 392.79003906 99.15673828 C376.78292753 93.06491839 360.48909136 89.28161524 343.625 86.375 C342.52389893 86.18091553 341.42279785 85.98683105 340.28833008 85.78686523 C316.71345146 81.90678858 293.18747009 80.54093968 269.32422042 80.56726015 C265.68868803 80.56789959 262.05322297 80.55112266 258.41772461 80.53674316 C252.15838195 80.51423794 245.89909385 80.50212161 239.63971329 80.49761391 C230.59035863 80.49108112 221.54110149 80.46802161 212.4917867 80.44127061 C197.80036515 80.39827424 183.10894778 80.36815377 168.41748047 80.34643555 C154.16876175 80.32534357 139.92007702 80.29799787 125.67138672 80.26245117 C124.78914374 80.26025235 123.90690076 80.25805352 122.99792315 80.25578807 C118.57078869 80.24471638 114.14365455 80.23352395 109.71652055 80.22227156 C73.14436769 80.12947205 36.57222404 80.06012437 0 80 C0 53.6 0 27.2 0 0 Z " fill="#FEFEFE" transform="translate(204,156)"/>
</svg>
